<?xml version="1.0" encoding="utf-8"?>
<!-- Generator: Adobe Illustrator 16.0.3, SVG Export Plug-In . SVG Version: 6.00 Build 0)  -->
<!DOCTYPE svg PUBLIC "-//W3C//DTD SVG 1.1//EN" "http://www.w3.org/Graphics/SVG/1.1/DTD/svg11.dtd">
<svg version="1.1" xmlns="http://www.w3.org/2000/svg" xmlns:xlink="http://www.w3.org/1999/xlink" x="0px" y="0px" width="354.5px"
	 height="456.5px" viewBox="0 0 354.5 456.5" enable-background="new 0 0 354.5 456.5" xml:space="preserve">
<g id="Layer_1">
	<text transform="matrix(0.9727 0 0 1 9.6729 451.4082)" font-family="'ConthraxSb-Regular'" font-size="59.0087">Aida DSP</text>
</g>
<g id="Layer_2">
	<path d="M319.354,74.481l30.307,0.541c0,0-0.768,24.264-13.35,45.775c0,0-5.344,10.418-17.994,19.685c0,0-6.9,5.481-19.484,9.947
		c0,0-13.867,5.953-30.305,3.45c0,0-11.839-0.813-26.654-10.282c0,0-11.906-7.239-24.015-22.934c0,0-16.44-18.333-20.904-24.827
		l-8.93-11.838c0,0-9.606-16.778-20.971-26.722c0,0-6.9-7.779-21.92-15.424c0,0-14.882-9.47-39.1-5.478
		c0,0-14.274,1.556-32.404,14.949c0,0-20.451,15.538-33.53,38.313L13.084,74.12c0,0,8.119-11.636,15.56-20.633
		c0,0,11.906-14.748,31.05-28.006c0,0,22.663-15.356,40.657-17.521c0,0,14.68-1.285,28.548,0.813c0,0,13.191,1.757,29.021,8.186
		c0,0,13.396,5.615,25.572,15.626c0,0,9.606,7.239,19.144,20.496c0,0,12.178,18.536,13.53,20.161c0,0,11.906,16.71,14.883,20.227
		c0,0,9.563,12.403,21.016,22.956c0,0,17.5,18.221,38.519,7.936c0,0,12.806-4.417,20.384-15.694
		C310.967,108.665,320.799,96.85,319.354,74.481z"/>
	<polygon points="11.326,230.794 142.399,164.229 223.877,224.3 300.633,164.229 347.275,237.83 311.849,255.146 291.775,205.9 
		222.104,264.889 137.675,199.947 30.81,261.1 	"/>
	<polygon points="34.92,335.515 34.92,282.84 161.572,282.118 162.431,332.629 218.054,332.629 217.199,281.396 329.304,282.118 
		328.447,336.236 346.417,335.515 348.131,369.431 290.796,369.431 289.082,314.592 254.854,314.592 253.995,367.984 
		121.354,368.706 121.354,313.146 73.429,313.146 71.72,368.706 10.104,368.706 10.96,335.515 	"/>
</g>
</svg>
